<?xml version="1.0" standalone="no"?>
<!DOCTYPE svg PUBLIC "-//W3C//DTD SVG 20010904//EN"
 "http://www.w3.org/TR/2001/REC-SVG-20010904/DTD/svg10.dtd">
<svg version="1.0" xmlns="http://www.w3.org/2000/svg"
 width="225.000000pt" height="225.000000pt" viewBox="0 0 225.000000 225.000000"
 preserveAspectRatio="xMidYMid meet">
<metadata>
Created by potrace 1.11, written by Peter Selinger 2001-2013
</metadata>
<g transform="translate(0.000000,225.000000) scale(0.100000,-0.100000)"
fill="#000000" stroke="none">
<path d="M1052 1513 c-98 -48 -109 -201 -19 -265 44 -32 131 -36 175 -9 97 62
97 211 0 271 -40 24 -110 26 -156 3z"/>
<path d="M1380 1063 l0 -63 -130 0 -130 0 0 -125 0 -125 130 0 130 0 0 -68 0
-67 93 -93 c51 -50 96 -92 101 -92 4 0 6 98 4 218 -3 210 -4 219 -29 274 -16
33 -56 86 -98 130 l-70 73 -1 -62z"/>
<path d="M789 1033 c-106 -111 -109 -123 -109 -388 l0 -212 95 96 94 97 6 164
c4 91 3 200 -2 244 l-8 79 -76 -80z"/>
<path d="M915 598 c-5 -26 -37 -255 -60 -432 -13 -96 -13 -121 -3 -127 14 -9
148 -33 153 -28 3 4 35 532 35 582 0 26 -1 27 -60 27 -54 0 -60 -2 -65 -22z"/>
<path d="M1210 578 c0 -43 13 -282 26 -472 l7 -98 51 6 c28 4 67 11 86 16 l36
10 -38 267 c-21 148 -40 278 -43 291 -5 20 -11 22 -65 22 l-60 0 0 -42z"/>
</g>
</svg>
